<svg width="115" height="69" viewBox="0 0 115 69" fill="none" xmlns="http://www.w3.org/2000/svg">
<path d="M51.8086 39.8405L54.6543 39.8405L54.6543 24.1889C54.6543 23.4027 55.291 22.766 56.0772 22.766L58.4925 22.766C59.3356 22.766 60.1591 23.015 60.8598 23.4828L63.5864 25.3005C63.7419 25.404 63.8755 25.5372 63.9795 25.6924C64.0835 25.8475 64.1559 26.0217 64.1926 26.2049C64.2293 26.3881 64.2295 26.5767 64.1932 26.7599C64.1569 26.9432 64.0849 27.1175 63.9813 27.2729L62.4019 29.6402C62.2983 29.7957 62.1652 29.9293 62.01 30.0333C61.8548 30.1373 61.6806 30.2098 61.4975 30.2464C61.3143 30.2831 61.1257 30.2833 60.9424 30.247C60.7591 30.2108 60.5848 30.1388 60.4294 30.0351L60.3458 29.98L60.3458 39.8405L63.1916 39.8405C63.9777 39.8405 64.6144 40.4772 64.6144 41.2634L64.6144 44.1091C64.6144 44.8952 63.9777 45.532 63.1916 45.532L51.8086 45.532C51.0224 45.532 50.3857 44.8952 50.3857 44.1091L50.3857 41.2634C50.3857 40.4772 51.0224 39.8405 51.8086 39.8405ZM6.27658 -9.45376e-06L108.724 -4.97567e-07C111.866 -2.22817e-07 114.415 2.54872 114.415 5.6915L114.415 62.6065C114.415 65.7493 111.866 68.298 108.724 68.298L6.27657 68.298C3.1338 68.298 0.585077 65.7492 0.585078 62.6065L0.585083 5.69149C0.585083 2.54871 3.1338 -9.72851e-06 6.27658 -9.45376e-06ZM105.878 59.7607L105.878 48.3777C99.5905 48.3777 94.4948 53.4734 94.4948 59.7607L105.878 59.7607ZM105.878 19.9202L105.878 8.53725L94.4948 8.53724C94.4948 14.8246 99.5905 19.9202 105.878 19.9202ZM57.5001 54.0692C66.9302 54.0692 74.5746 45.1496 74.5746 34.149C74.5746 23.1466 66.9302 14.2287 57.5001 14.2287C48.07 14.2287 40.4256 23.1466 40.4256 34.149C40.4256 45.1531 48.0735 54.0692 57.5001 54.0692ZM9.12232 59.7607L20.5053 59.7607C20.5053 53.4734 15.4096 48.3777 9.12233 48.3777L9.12232 59.7607ZM9.12233 19.9202C15.4097 19.9202 20.5053 14.8246 20.5053 8.53724L9.12233 8.53724L9.12233 19.9202Z" fill="white"/>
</svg>
