<svg width="53" height="68" viewBox="0 0 53 68" fill="none" xmlns="http://www.w3.org/2000/svg">
<path d="M23.8951 0V8.24432C19.3468 9.4094 15.9574 13.448 15.9574 18.2859C15.9574 21.0209 17.0846 23.5104 18.852 25.3887L10.0041 44.4086H0.0820232V49.6331H7.52494L0 65.7979L4.79437 68L13.3935 49.6331H23.8951V54.8577H29.1869V49.6331H39.6885L48.203 68L53 65.8814L45.4751 49.6331H53V44.4086H43.0779L34.23 25.3051C35.9763 23.4503 37.1246 21.0105 37.1246 18.2859C37.1246 13.448 33.7352 9.4094 29.1869 8.24432V0H23.8951ZM26.541 13.0613C29.4965 13.0613 31.8328 15.368 31.8328 18.2859C31.8328 19.8062 31.2137 21.1646 30.1791 22.1233L30.0971 22.2043L27.4512 23.3485L37.204 44.4086H29.1869V39.184H23.8951V44.4086H15.7907L25.5488 23.5104L22.9029 22.2853L22.9849 22.2043C22.4288 21.7116 21.9861 21.1068 21.6867 20.4309C21.3873 19.755 21.2381 19.0235 21.2492 18.2859C21.2492 15.368 23.5855 13.0613 26.541 13.0613Z" fill="#1B3BAD"/>
</svg>
