<svg width="51" height="68" viewBox="0 0 51 68" fill="none" xmlns="http://www.w3.org/2000/svg">
<path d="M50.434 24.9338C50.434 11.107 39.2138 0 25.5002 0C11.7866 0 0.566406 11.2201 0.566406 24.9338C0.566406 34.4539 6.34683 42.841 14.1669 47.0334L11.8997 68L25.5002 58.9338L39.1006 68L36.8335 47.0334C44.7667 42.8398 50.434 34.4539 50.434 24.9338ZM25.5002 47.6004C12.9207 47.6004 2.83353 37.4001 2.83353 24.9338C2.83353 12.3543 13.0339 2.26712 25.5002 2.26712C37.9665 2.26712 48.1669 12.4675 48.1669 24.9338C48.1772 27.9133 47.5979 30.8654 46.4625 33.6201C45.327 36.3748 43.6578 38.8777 41.551 40.9845C39.4441 43.0914 36.9412 44.7606 34.1865 45.8961C31.4318 47.0315 28.4797 47.6108 25.5002 47.6004ZM35.7005 15.6401L39.1006 19.0402L23.8001 34.3407L15.2999 25.8404L18.7 22.4403L23.8001 27.5405L35.7005 15.6401Z" fill="white"/>
</svg>
