<svg width="75" height="68" viewBox="0 0 75 68" fill="none" xmlns="http://www.w3.org/2000/svg">
<path d="M73.4556 10.8465C73.0902 10.6636 72.6828 10.5802 72.2748 10.6046C71.8667 10.6291 71.4723 10.7605 71.1314 10.9858L49.1211 25.6976V12.9118C49.1218 12.4705 48.9964 12.0381 48.7597 11.6654C48.523 11.2927 48.1848 10.9951 47.7846 10.8075C47.3845 10.62 46.9391 10.5502 46.5007 10.6064C46.0623 10.6627 45.649 10.8426 45.3093 11.125L26.9945 26.2313H18.9062V4.46522C18.9194 3.92881 18.7459 3.40443 18.4154 2.98135C18.0848 2.55826 17.6176 2.26262 17.0933 2.14473L7.79648 0.0563009C7.45347 -0.0205433 7.09746 -0.0187023 6.75527 0.061685C6.41307 0.142072 6.0936 0.298912 5.82089 0.520397C5.54186 0.746074 5.319 1.03323 5.16979 1.35935C5.02058 1.68546 4.9491 2.04166 4.96093 2.39999V26.2313H2.63672C2.0203 26.2313 1.42912 26.4758 0.993247 26.911C0.557372 27.3462 0.3125 27.9364 0.3125 28.5518V65.6795C0.3125 66.2949 0.557372 66.8852 0.993247 67.3203C1.42912 67.7555 2.0203 68 2.63672 68H72.3632C72.9796 68 73.5708 67.7555 74.0067 67.3203C74.4426 66.8852 74.6874 66.2949 74.6874 65.6795V12.9118C74.6905 12.488 74.5774 12.0716 74.3602 11.7075C74.1431 11.3434 73.8302 11.0457 73.4556 10.8465ZM9.60937 5.347L14.2578 6.36801V26.2313H9.60937V5.347ZM70.039 63.359H4.96093V30.8723H27.808C28.351 30.8734 28.8773 30.6845 29.2955 30.3386L44.4726 17.808V30.0601C44.472 30.4817 44.5864 30.8955 44.8035 31.257C45.0207 31.6185 45.3324 31.9142 45.7051 32.1122C46.0779 32.3102 46.4976 32.4031 46.9193 32.3809C47.3409 32.3587 47.7486 32.2222 48.0984 31.9861L70.039 17.2743V63.359Z" fill="#1B3BAD"/>
<path d="M9.0625 33.4024H26.5625V37.7704H9.0625V33.4024ZM9.0625 42.1383H26.5625V46.5063H9.0625V42.1383ZM9.0625 50.8743H26.5625V55.2422H9.0625V50.8743ZM37.5 35.5864H41.875V42.1383H37.5V35.5864ZM37.5 48.6903H41.875V55.2422H37.5V48.6903ZM46.25 35.5864H50.625V42.1383H46.25V35.5864ZM46.25 48.6903H50.625V55.2422H46.25V48.6903ZM55 35.5864H59.375V42.1383H55V35.5864ZM55 48.6903H59.375V55.2422H55V48.6903Z" fill="#1B3BAD"/>
</svg>
