<svg width="44" height="43" viewBox="0 0 44 43" fill="none" xmlns="http://www.w3.org/2000/svg">
<path d="M41.5 41L32.0903 31.5903M32.0903 31.5903C33.6998 29.9807 34.9766 28.0699 35.8477 25.9669C36.7188 23.8638 37.1672 21.6099 37.1672 19.3336C37.1672 17.0573 36.7188 14.8033 35.8477 12.7003C34.9766 10.5973 33.6998 8.68646 32.0903 7.07689C30.4807 5.46732 28.5699 4.19053 26.4669 3.31944C24.3638 2.44835 22.1099 2 19.8336 2C17.5573 2 15.3033 2.44835 13.2003 3.31944C11.0973 4.19053 9.18646 5.46732 7.57689 7.07689C4.32621 10.3276 2.5 14.7364 2.5 19.3336C2.5 23.9307 4.32621 28.3396 7.57689 31.5903C10.8276 34.841 15.2364 36.6672 19.8336 36.6672C24.4307 36.6672 28.8396 34.841 32.0903 31.5903Z" stroke="white" stroke-width="4" stroke-linecap="round" stroke-linejoin="round"/>
</svg>
