<svg width="61" height="68" viewBox="0 0 61 68" fill="none" xmlns="http://www.w3.org/2000/svg">
<path d="M30.5 34C39.8898 34 47.5 26.3898 47.5 17C47.5 7.61016 39.8898 0 30.5 0C21.1102 0 13.5 7.61016 13.5 17C13.5 26.3898 21.1102 34 30.5 34ZM42.4 38.25H40.182C37.2336 39.6047 33.9531 40.375 30.5 40.375C27.0469 40.375 23.7797 39.6047 20.818 38.25H18.6C8.74531 38.25 0.75 46.2453 0.75 56.1V61.625C0.75 65.1445 3.60547 68 7.125 68H53.875C57.3945 68 60.25 65.1445 60.25 61.625V56.1C60.25 46.2453 52.2547 38.25 42.4 38.25Z" fill="white"/>
</svg>
