<svg width="68" height="68" viewBox="0 0 68 68" fill="none" xmlns="http://www.w3.org/2000/svg">
<path fill-rule="evenodd" clip-rule="evenodd" d="M33.9997 0C34.5006 0 34.9811 0.199008 35.3353 0.553243C35.6896 0.907479 35.8886 1.38792 35.8886 1.88889V2.01733C41.1737 2.56889 45.2065 4.84122 47.832 7.73311C49.6378 9.72211 50.8335 12.0927 51.2093 14.4047L51.4133 14.5614C53.5365 16.2067 55.0948 18.2013 54.7246 20.4888C54.3676 22.6988 52.371 24.0437 50.5123 24.8653C50.0422 25.0725 49.5632 25.2591 49.0768 25.4244C49.2156 27.4896 48.9286 29.5612 48.2337 31.5108C47.5388 33.4604 46.4509 35.2465 45.0372 36.7583C43.6236 38.2701 41.9145 39.4754 40.0158 40.2994C38.1171 41.1235 36.0694 41.5487 33.9997 41.5487C31.9299 41.5487 29.8822 41.1235 27.9836 40.2994C26.0849 39.4754 24.3758 38.2701 22.9621 36.7583C21.5485 35.2465 20.4605 33.4604 19.7656 31.5108C19.0708 29.5612 18.7838 27.4896 18.9226 25.4244C18.4361 25.2591 17.9572 25.0725 17.487 24.8653C15.6283 24.0437 13.6318 22.6988 13.2748 20.4888C12.9046 18.2013 14.4629 16.2067 16.586 14.5614L16.8259 14.3763C16.8747 14.0756 16.9351 13.777 17.0072 13.481C17.5042 11.5163 18.4126 9.67944 19.6725 8.092C22.2036 4.86578 26.3459 2.25911 32.1108 1.92667V1.88889C32.1108 1.38792 32.3098 0.907479 32.664 0.553243C33.0183 0.199008 33.4987 0 33.9997 0ZM48.4686 19.72C48.855 19.8599 49.2766 19.87 49.6693 19.7486C50.062 19.6273 50.4044 19.3811 50.6446 19.0476C51.0167 19.567 51.0035 19.8428 50.9959 19.8862C50.9713 20.0373 50.6823 20.6607 48.9842 21.4124C47.0028 22.2889 44.0221 22.9236 40.6032 23.2824C40.522 21.5857 39.7909 19.9853 38.5614 18.8133C37.3318 17.6412 35.6984 16.9873 33.9997 16.9873C32.301 16.9873 30.6675 17.6412 29.438 18.8133C28.2085 19.9853 27.4773 21.5857 27.3961 23.2824C23.9772 22.9236 20.9966 22.2889 19.0151 21.4124C17.317 20.6607 17.028 20.0373 17.0035 19.8862C16.9959 19.8428 16.9827 19.5689 17.3548 19.0476C17.6214 19.4193 18.0139 19.6816 18.4594 19.7858C18.9048 19.8899 19.3729 19.829 19.7767 19.6141C20.1806 19.3993 20.4928 19.0451 20.6553 18.6175C20.8178 18.1899 20.8196 17.7178 20.6603 17.289C20.4337 16.677 20.3638 15.6627 20.6773 14.3744C21.0476 12.9339 21.7184 11.5879 22.6456 10.4248L22.6663 10.3983V14.1667C22.6663 14.6676 22.8654 15.1481 23.2196 15.5023C23.5738 15.8565 24.0543 16.0556 24.5552 16.0556C25.0562 16.0556 25.5366 15.8565 25.8909 15.5023C26.2451 15.1481 26.4441 14.6676 26.4441 14.1667V7.26467C27.9968 6.443 29.8762 5.86878 32.1108 5.71011V10.3889C32.1108 10.8899 32.3098 11.3703 32.664 11.7245C33.0183 12.0788 33.4987 12.2778 33.9997 12.2778C34.5006 12.2778 34.9811 12.0788 35.3353 11.7245C35.6896 11.3703 35.8886 10.8899 35.8886 10.3889V5.81967C38.0986 6.09733 39.9837 6.73011 41.5552 7.57633V14.1667C41.5552 14.6676 41.7542 15.1481 42.1085 15.5023C42.4627 15.8565 42.9432 16.0556 43.4441 16.0556C43.9451 16.0556 44.4255 15.8565 44.7798 15.5023C45.134 15.1481 45.333 14.6676 45.333 14.1667V10.6137C47.441 13.1202 47.8868 15.7722 47.3352 17.3022C47.1651 17.7731 47.1889 18.2923 47.4014 18.7457C47.614 19.1991 47.9978 19.5495 48.4686 19.72ZM29.2151 28.1728C27.0293 28.0336 24.8542 27.7592 22.7022 27.3511C22.9288 30.1919 24.2173 32.843 26.311 34.7763C28.4047 36.7096 31.1499 37.7832 33.9997 37.7832C36.8495 37.7832 39.5946 36.7096 41.6883 34.7763C43.782 32.843 45.0705 30.1919 45.2971 27.3511C43.2949 27.744 41.0773 28.016 38.7842 28.1728C38.1676 28.8212 37.4254 29.3374 36.6028 29.6897C35.7802 30.0421 34.8945 30.2232 33.9997 30.2222C33.1048 30.2232 32.2191 30.0421 31.3966 29.6897C30.574 29.3374 29.8318 28.8212 29.2151 28.1728ZM36.833 23.6111C36.833 24.3626 36.5345 25.0832 36.0031 25.6146C35.4718 26.1459 34.7511 26.4444 33.9997 26.4444C33.2482 26.4444 32.5276 26.1459 31.9962 25.6146C31.4649 25.0832 31.1663 24.3626 31.1663 23.6111C31.1663 22.8597 31.4649 22.139 31.9962 21.6076C32.5276 21.0763 33.2482 20.7778 33.9997 20.7778C34.7511 20.7778 35.4718 21.0763 36.0031 21.6076C36.5345 22.139 36.833 22.8597 36.833 23.6111Z" fill="#1B3BAD"/>
<path d="M33.9999 62.3333C35.0019 62.3333 35.9628 61.9353 36.6712 61.2268C37.3797 60.5184 37.7777 59.5575 37.7777 58.5555C37.7777 57.5536 37.3797 56.5927 36.6712 55.8843C35.9628 55.1758 35.0019 54.7778 33.9999 54.7778C32.998 54.7778 32.0371 55.1758 31.3287 55.8843C30.6202 56.5927 30.2222 57.5536 30.2222 58.5555C30.2222 59.5575 30.6202 60.5184 31.3287 61.2268C32.0371 61.9353 32.998 62.3333 33.9999 62.3333Z" fill="#1B3BAD"/>
<path fill-rule="evenodd" clip-rule="evenodd" d="M25.5642 42.3112L32.1111 47.2223H35.8889L42.4358 42.3112C53.9486 44.1547 68 49.2812 68 56.6667V68H0V56.6667C0 49.2812 14.0514 44.1547 25.5642 42.3112ZM37.1488 51L43.401 46.3099C45.2956 46.6575 47.2241 47.0938 49.1111 47.6057V64.2223H52.8889V48.7617C54.2111 49.215 55.4786 49.708 56.6667 50.2388V64.2223H11.3333V50.2388C12.5214 49.7099 13.7889 49.215 15.1111 48.7617V64.2223H18.8889V47.6057C20.7759 47.0938 22.7044 46.6575 24.599 46.3099L30.8512 51H37.1488ZM62.9094 54.1923C63.9748 55.2954 64.2222 56.1095 64.2222 56.6667V64.2223H60.4444V52.2392C61.4644 52.8927 62.288 53.55 62.9094 54.1942V54.1923ZM5.09055 54.1923C5.71389 53.55 6.53744 52.8927 7.55556 52.2392V64.2223H3.77778V56.6667C3.77778 56.1095 4.02333 55.2954 5.09055 54.1923Z" fill="#1B3BAD"/>
</svg>
