<svg width="68" height="68" viewBox="0 0 68 68" fill="none" xmlns="http://www.w3.org/2000/svg">
<path fill-rule="evenodd" clip-rule="evenodd" d="M67.0412 12.0632L63.2506 11.1687L53.0061 21.3581L47.2034 15.4467L57.1952 4.9607L56.3205 1.11049C54.209 0.403886 52.0006 0.0299554 49.7743 0.00209203C47.3456 -0.0352666 44.9353 0.428086 42.6935 1.36328C40.529 2.34338 38.5724 3.7296 36.9298 5.44684C35.1013 7.1795 33.6531 9.27376 32.6774 11.5965C30.7989 16.2191 30.7989 21.3927 32.6774 26.0153C22.5459 35.986 12.5451 46.0888 2.67776 56.3212C1.6572 57.6581 1.17122 59.3255 1.29757 61.0027C1.39716 62.8066 2.20814 64.4973 3.55253 65.7037C4.15515 66.36 4.8744 66.9044 5.67627 67.2982C6.50244 67.6628 7.39179 67.8718 8.29085 67.9156C9.82656 67.8864 11.2991 67.3031 12.4411 66.2773C19.9641 59.1943 34.3784 44.6442 42.5672 36.1173C44.7881 37.0604 47.1743 37.5465 49.5847 37.5417C52.0112 37.5398 54.4126 37.0514 56.6471 36.1053C58.8816 35.1593 60.9039 33.7748 62.5945 32.0337C66.0671 28.4911 68.0066 23.7237 67.9937 18.7622C68.0499 16.4918 67.728 14.2279 67.0412 12.0632ZM9.50095 62.8306C9.31389 62.9968 9.08842 63.1137 8.84487 63.1709C8.60528 63.2124 8.36035 63.2124 8.12076 63.1709C7.86955 63.1326 7.63029 63.0379 7.42095 62.8938C7.1963 62.7623 7.00635 62.5789 6.86693 62.359C6.18655 61.6639 5.54991 60.3416 6.18655 59.5978C12.8445 52.5147 26.5541 38.6695 35.1268 30.2059C35.6128 30.8476 36.1473 31.4601 36.7208 32.0337C37.2943 32.6317 37.9115 33.1859 38.5675 33.6915C30.2767 42.1989 16.7518 55.8788 9.50095 62.8306ZM63.5324 18.7622C63.5421 22.4811 62.0939 26.0542 59.4891 28.7183C56.8897 31.269 53.3937 32.6979 49.7524 32.6979C46.1111 32.6979 42.6152 31.269 40.0158 28.7183C38.1106 26.7295 36.8092 24.2404 36.2629 21.5407C35.7166 18.8409 35.9478 16.0415 36.9298 13.4681C37.5834 11.7167 38.5972 10.1221 39.9056 8.78724C41.2141 7.45242 42.788 6.40717 44.5257 5.71908C46.1755 5.02831 47.9469 4.6746 49.7354 4.67874H50.9698L42.1395 13.7841V17.1676L51.3489 26.3362H54.5563L63.5324 17.5079V18.7622ZM10.9929 27.6342H18.4333L21.8595 31.1198L25.1544 27.8432L21.9226 24.5472V24.3382L22.1997 16.3218L21.1305 14.1973L7.23141 5.04821L4.35926 5.36906L0.320748 9.49637L0 12.4083L8.93235 26.5939L10.9929 27.6342ZM6.40038 9.97765L17.646 17.3864L17.4565 22.8457H12.2273L4.97646 11.3631L6.40038 9.97765ZM40.9294 43.8129L44.2049 40.5412L59.2995 56.0247C60.5709 57.3613 61.28 59.1358 61.28 60.9808C61.28 62.8259 60.5709 64.6003 59.2995 65.937C58.3435 66.9188 57.1142 67.59 55.7715 67.8631C54.4288 68.1362 53.0351 67.9987 51.7717 67.4684C50.9653 67.1106 50.2421 66.5891 49.6479 65.937L34.3784 50.366L37.6782 47.07L52.8991 62.5972C53.1038 62.8231 53.3584 62.9979 53.6427 63.1077C54.2021 63.335 54.828 63.335 55.3874 63.1077C55.6715 62.9977 55.9261 62.8229 56.1309 62.5972C56.3436 62.3865 56.5093 62.1329 56.6169 61.8535C56.7284 61.5682 56.7877 61.2652 56.7919 60.959C56.787 60.6532 56.7295 60.3506 56.6218 60.0645C56.5141 59.785 56.3485 59.5315 56.1358 59.3207L40.9294 43.8129Z" fill="#1B3BAD"/>
</svg>
