<svg width="201" height="45" viewBox="0 0 201 45" fill="none" xmlns="http://www.w3.org/2000/svg">
<path d="M61.0566 37.7309C61.0566 39.0605 61.8845 39.8175 62.9028 39.8175C63.9848 39.8175 64.8136 39.0605 64.8136 37.7309V31.9819H71.3686V37.7309C71.3686 42.4098 67.5495 45 62.9028 45C58.2561 45 54.5005 42.4098 54.5005 37.7309V7.331C54.5005 2.6553 58.2561 3.8147e-06 62.9028 3.8147e-06C67.5495 3.8147e-06 71.3686 2.6553 71.3686 7.331V13.0213H64.8136V7.331C64.8136 5.94047 63.9848 5.18351 62.9028 5.18351C61.8845 5.18351 61.0566 5.94047 61.0566 7.331V37.7309Z" fill="white"/>
<path d="M80.6572 0.379177H86.895V24.7128H87.0216L91.5417 5.81395V0.379177H97.8419V44.621H91.5417V20.2873H91.414L86.895 39.1862V44.621H80.6572V0.379177Z" fill="white"/>
<path d="M107.511 0.379177H122.086V5.56163H114.068V44.621H107.511V0.379177Z" fill="white"/>
<path d="M130.611 0.379177H137.169V19.4036H141.05V0.379177H147.543V44.621H141.05V24.5872H137.169V44.621H130.611V0.379177Z" fill="white"/>
<path d="M163.387 30.4649H167.142L165.359 7.58546H165.233L163.387 30.4649ZM161.032 0.379177H169.497L174.907 44.621H168.224L167.461 35.6453H163.069L162.304 44.621H155.622L161.032 0.379177Z" fill="white"/>
<path d="M184.195 0.379139H200.808V44.621H194.251V5.56159H190.687V35.393C190.687 41.4622 186.74 45 181.903 45V39.8175C183.113 39.8175 184.195 38.2386 184.195 35.393V0.379139Z" fill="white"/>
<path d="M43.9584 31.3805L42.2231 30.7337C43.3309 28.0683 43.9738 25.409 43.9738 22.5006C43.9738 19.5911 43.3317 16.8741 42.2231 14.2088L43.9573 13.6177C45.089 16.3397 45.6636 19.5303 45.6636 22.5006C45.6636 25.4698 45.089 28.6594 43.9584 31.3805Z" fill="white"/>
<path d="M39.7048 29.7862L37.9696 29.1445C38.7744 27.0971 39.3822 24.7231 39.3822 22.449C39.3822 20.2317 38.8015 17.8536 37.9199 15.661L39.6551 15.0912C40.5585 17.3365 41.0709 20.175 41.0709 22.449C41.0709 24.7798 40.5316 27.6851 39.7048 29.7862Z" fill="white"/>
<path d="M35.6377 28.2619L33.916 27.6141C34.2365 26.4431 34.7901 24.3647 34.7901 22.449C34.7901 20.4448 34.4375 18.5931 33.9521 17.0286L35.6741 16.4446C36.173 18.0545 36.4789 20.3985 36.4789 22.449C36.4789 24.4152 35.9654 27.0651 35.6377 28.2619Z" fill="white"/>
<path d="M31.4706 26.7016L29.7704 26.0682C30.0017 24.926 30.199 23.721 30.199 22.449C30.199 21.0669 29.9685 19.7373 29.6772 18.4539L31.3989 17.8979C31.6987 19.2151 31.8875 21.0319 31.8875 22.449C31.8875 23.7529 31.708 25.5285 31.4706 26.7016Z" fill="white"/>
<path d="M27.1512 25.0826L25.4606 24.4574C25.5632 23.6891 25.6058 23.3019 25.6058 22.4491C25.6058 21.4944 25.5332 20.898 25.3755 19.9196L27.0734 19.3377C27.2352 20.3409 27.2954 21.4697 27.2954 22.4491C27.2954 23.3111 27.2549 24.304 27.1512 25.0826Z" fill="white"/>
<path d="M42.2614 34.1602V32.879L31.9236 28.61V32.879L35.2645 34.258C32.8777 36.7401 29.7391 38.2531 26.2946 38.2531C18.8328 38.2531 12.7838 31.1776 12.7838 22.4491C12.7838 13.7215 18.8328 6.64498 26.2946 6.64498C29.7434 6.64498 32.8851 8.16206 35.2727 10.6494L31.9236 12.0315V16.3004L42.2614 12.0315V10.7472L42.2625 10.7462C38.3056 4.44001 31.2577 0.242058 23.2234 0.242058C10.8442 0.242058 0.808105 10.2075 0.808105 22.5006C0.808105 34.7926 10.8442 44.758 23.2234 44.758C31.2856 44.758 38.3531 40.5323 42.3028 34.189L42.2614 34.1602Z" fill="white"/>
<path d="M24.1962 22.17C24.1962 23.1381 23.4059 23.9229 22.4309 23.9229C21.4549 23.9229 20.6646 23.1381 20.6646 22.17C20.6646 21.2019 21.4549 20.4171 22.4309 20.4171C23.4059 20.4171 24.1962 21.2019 24.1962 22.17Z" fill="white"/>
</svg>
